<?xml version="1.0" encoding="UTF-8" standalone="no"?>
<!-- Created with Inkscape (http://www.inkscape.org/) -->

<svg
   version="1.1"
   id="svg2"
   width="69.073997"
   height="69.073997"
   viewBox="0 0 69.073998 69.073998"
   sodipodi:docname="email-icon.svg"
   inkscape:export-filename="email-icon-cream.svg"
   inkscape:export-xdpi="100"
   inkscape:export-ydpi="100"
   xmlns:inkscape="http://www.inkscape.org/namespaces/inkscape"
   xmlns:sodipodi="http://sodipodi.sourceforge.net/DTD/sodipodi-0.dtd"
   xmlns="http://www.w3.org/2000/svg"
   xmlns:svg="http://www.w3.org/2000/svg">
  <defs
     id="defs6">
    <inkscape:path-effect
       effect="mirror_symmetry"
       start_point="34.65625,10.880859"
       end_point="34.65625,58.546875"
       center_point="34.65625,34.713867"
       id="path-effect438"
       is_visible="true"
       lpeversion="1.2"
       lpesatellites=""
       mode="free"
       discard_orig_path="false"
       fuse_paths="false"
       oposite_fuse="false"
       split_items="false"
       split_open="false"
       link_styles="false" />
  </defs>
  <sodipodi:namedview
     id="namedview4"
     pagecolor="#ffffff"
     bordercolor="#000000"
     borderopacity="0.25"
     inkscape:showpageshadow="2"
     inkscape:pageopacity="0.0"
     inkscape:pagecheckerboard="0"
     inkscape:deskcolor="#d1d1d1"
     showgrid="false" />
  <g
     inkscape:groupmode="layer"
     inkscape:label="Image"
     id="g8"
     transform="translate(-0.47397348,-10.880859)">
    <path
       id="rect376"
       style="fill:#233c4b;fill-opacity:1"
       d="m 7.484375,10.880859 c -3.381611,0 -6.2099936,2.260204 -7.08203125,5.355469 L 34.65625,36.458984 V 10.880859 Z M 0.37890625,16.326172 C 0.2144912,16.939343 0.11914063,17.581589 0.11914062,18.248047 v 32.933594 c 0,4.080508 3.28472648,7.365234 7.36523438,7.365234 H 34.65625 V 43.232422 C 34.59873,43.35746 26.177734,37.425781 26.177734,37.425781 L 1.8398438,55.408203 21.912109,34.332031 Z M 61.828125,10.880859 c 3.381611,0 6.209994,2.260204 7.082031,5.355469 L 34.65625,36.458984 V 10.880859 Z m 7.105469,5.445313 c 0.164415,0.613171 0.259765,1.255417 0.259765,1.921875 v 32.933594 c 0,4.080508 -3.284726,7.365234 -7.365234,7.365234 H 34.65625 V 43.232422 c 0.05752,0.125038 8.478516,-5.806641 8.478516,-5.806641 L 67.472656,55.408203 47.400391,34.332031 Z"
       inkscape:path-effect="#path-effect438"
       inkscape:original-d="m 7.484375,10.880859 c -3.381611,0 -6.2099936,2.260204 -7.08203125,5.355469 L 34.65625,36.458984 V 10.880859 Z M 0.37890625,16.326172 C 0.2144912,16.939343 0.11914063,17.581589 0.11914062,18.248047 v 32.933594 c 0,4.080508 3.28472648,7.365234 7.36523438,7.365234 H 34.65625 V 43.232422 C 34.59873,43.35746 26.177734,37.425781 26.177734,37.425781 L 1.8398438,55.408203 21.912109,34.332031 Z"
       class="UnoptimicedTransforms"
       transform="translate(0.35483285,11.959628)" />
  </g>
</svg>
