<?xml version="1.0" encoding="UTF-8" standalone="no"?>
<!-- Created with Inkscape (http://www.inkscape.org/) -->

<svg
   version="1.1"
   id="svg2"
   width="2049.0273"
   height="2048.3906"
   viewBox="0 0 2049.0273 2048.3907"
   sodipodi:docname="LinkedIn_icon.svg"
   inkscape:export-filename="LinkedIn_icon-orange.svg"
   inkscape:export-xdpi="96"
   inkscape:export-ydpi="96"
   xmlns:inkscape="http://www.inkscape.org/namespaces/inkscape"
   xmlns:sodipodi="http://sodipodi.sourceforge.net/DTD/sodipodi-0.dtd"
   xmlns="http://www.w3.org/2000/svg"
   xmlns:svg="http://www.w3.org/2000/svg">
  <defs
     id="defs6" />
  <sodipodi:namedview
     id="namedview4"
     pagecolor="#ffffff"
     bordercolor="#000000"
     borderopacity="0.25"
     inkscape:showpageshadow="2"
     inkscape:pageopacity="0.0"
     inkscape:pagecheckerboard="0"
     inkscape:deskcolor="#d1d1d1"
     showgrid="false"
     showguides="false">
    <inkscape:grid
       type="xygrid"
       id="grid269" />
  </sodipodi:namedview>
  <g
     inkscape:groupmode="layer"
     id="layer1"
     inkscape:label="background"
     style="display:inline"
     transform="translate(1.0605432,-13.127298)">
    <path
       id="rect445"
       style="display:inline;fill:#233c4b;fill-opacity:1;stroke-width:1.00394"
       inkscape:label="rect445"
       d="M 223.93945,13.127298 C 99.289837,13.127298 -1.0605432,113.47768 -1.0605432,238.1273 V 1836.518 c 0,124.6494 100.3503802,225 224.9999932,225 H 1822.9668 c 124.6497,0 225,-100.3506 225,-225 V 238.1273 c 0,-124.64962 -100.3503,-225.000002 -225,-225.000002 z M 465.0625,296.84019 A 180.96019,183.43063 0 0 1 646.02147,480.27184 180.96019,183.43063 0 0 1 465.0625,663.70152 180.96019,183.43063 0 0 1 284.10156,480.27184 180.96019,183.43063 0 0 1 465.0625,296.84019 Z m 930.3965,464.28516 c 48.0494,-1.37046 95.3775,6.63629 142.3945,18.6875 72.8614,22.91112 124.29,69.39682 164.2832,128.46289 26.0886,41.92792 51.7856,86.2078 61.7617,224.81056 v 644.7871 l -303.8652,-1.2343 -2.4707,-522.5 c -2.6207,-93.3088 -11.9831,-105.7101 -20.998,-122.2871 -19.6844,-49.0763 -55.691,-81.8296 -114.875,-91.4063 -86.2848,-5.6061 -136.7145,20.1606 -170.461,60.5254 -25.792,30.8441 -41.7232,82.8195 -44.4687,163.0488 v 515.0899 H 812.77737 V 789.69566 h 293.98243 l 1.2363,132.16797 c 20.1753,-31.51548 40.3501,-53.22576 60.5254,-71.64258 49.8566,-43.43104 96.3111,-68.14889 139.5801,-75.34765 29.4377,-8.72689 58.5277,-12.92577 87.3574,-13.74805 z m -1082.94728,28.57031 305.09965,1.23438 1.2363,985.70906 H 313.74609 Z" />
  </g>
</svg>
