<?xml version="1.0" encoding="UTF-8" standalone="no"?>
<svg
   height="48"
   viewBox="0 -960 960 960"
   width="48"
   version="1.1"
   id="svg4"
   sodipodi:docname="printer-icon.svg"
   inkscape:export-filename="printer-icon-navy.svg"
   inkscape:export-xdpi="96"
   inkscape:export-ydpi="96"
   xmlns:inkscape="http://www.inkscape.org/namespaces/inkscape"
   xmlns:sodipodi="http://sodipodi.sourceforge.net/DTD/sodipodi-0.dtd"
   xmlns="http://www.w3.org/2000/svg"
   xmlns:svg="http://www.w3.org/2000/svg">
  <defs
     id="defs8" />
  <sodipodi:namedview
     id="namedview6"
     pagecolor="#ffffff"
     bordercolor="#000000"
     borderopacity="0.25"
     inkscape:showpageshadow="2"
     inkscape:pageopacity="0.0"
     inkscape:pagecheckerboard="0"
     inkscape:deskcolor="#d1d1d1"
     showgrid="false" />
  <path
     d="M 652.913,-662.696 V -774.913 H 307.087 v 112.217 h -79.218 v -192 h 504.827 v 192 z m -507.826,79.783 h 669.826 z m 584.586,108.001 q 15.109,0 25.805,-10.59 10.696,-10.59 10.696,-25.628 0,-14.826 -10.59,-25.804 -10.59,-10.979 -25.911,-10.979 -15.108,0 -25.804,10.979 -10.696,10.978 -10.696,25.804 0,14.826 10.696,25.522 10.696,10.696 25.804,10.696 z m -76.76,299.999 V -334.128 H 307.087 v 159.215 z m 79.783,76.392 H 227.869 V -284.13 h -162 V -542 q 0,-50.476 34.292,-85.586 34.292,-35.11 84.709,-35.11 h 590.26 q 50.816,0 85.191,35.11 34.375,35.11 34.375,85.586 v 257.87 h -162 v 185.61 z m 82.217,-265.392 v -179.432 q 0,-17.143 -11.438,-28.355 -11.437,-11.213 -28.345,-11.213 H 184.87 q -16.512,0 -28.148,11.812 -11.635,11.812 -11.635,29.101 v 178.087 h 82.782 v -49.999 h 504.827 v 49.999 z"
     id="path2"
     style="fill:#ff7d2d;fill-opacity:1" />
</svg>
